<?xml version="1.0" encoding="UTF-8"?>
<svg width="26px" height="25px" viewBox="0 0 26 25" version="1.1" xmlns="http://www.w3.org/2000/svg" xmlns:xlink="http://www.w3.org/1999/xlink">
    <!-- Generator: Sketch 64 (93537) - https://sketch.com -->
    <title>闭眼</title>
    <desc>Created with Sketch.</desc>
    <g id="注册登录" stroke="none" stroke-width="1" fill="none" fill-rule="evenodd">
        <g id="画板" transform="translate(-74.000000, -143.000000)">
            <g id="闭眼" transform="translate(74.000000, 144.000000)">
                <path d="M13.0400391,6.721875 C10.1501953,6.721875 7.79941406,9.07294922 7.79941406,11.962793 C7.79941406,14.8526367 10.1501953,17.203418 13.0400391,17.203418 C15.9298828,17.203418 18.280957,14.8526367 18.280957,11.962793 C18.280957,9.07294922 15.9298828,6.721875 13.0400391,6.721875 Z M13.0400391,15.384375 C11.1533203,15.384375 9.61845703,13.8495117 9.61845703,11.962793 C9.61845703,10.0757813 11.1533203,8.54091797 13.0400391,8.54091797 C14.9270508,8.54091797 16.4619141,10.0757812 16.4619141,11.962793 C16.4619141,13.8492187 14.9270508,15.384375 13.0400391,15.384375 Z" id="形状" fill="#969190" fill-rule="nonzero"></path>
                <path d="M13,3 C5.99635955,3 0,9.86025821 0,12 C0,14.1397418 5.99635955,21 13,21 C20.0036404,21 26,14.1397418 26,12 C26,9.86025821 20.0036404,3 13,3 Z M13,19.5 C6.70114387,19.5 1.5,13.1270394 1.5,12 C1.5,10.8727056 6.70114387,4.5 13,4.5 C19.2988561,4.5 24.5,10.8729606 24.5,12 C24.5,13.1270394 19.2985558,19.5 13,19.5 L13,19.5 Z" id="形状" fill="#969190" fill-rule="nonzero"></path>
                <line x1="3.5" y1="0.5" x2="21.2648468" y2="22.916214" id="路径-2" stroke="#969190" stroke-width="2" stroke-linecap="round"></line>
            </g>
        </g>
    </g>
</svg>