<?xml version="1.0" encoding="UTF-8"?>
<svg width="26px" height="18px" viewBox="0 0 26 18" version="1.1" xmlns="http://www.w3.org/2000/svg" xmlns:xlink="http://www.w3.org/1999/xlink">
    <!-- Generator: Sketch 64 (93537) - https://sketch.com -->
    <title>睁眼</title>
    <desc>Created with Sketch.</desc>
    <g id="注册登录" stroke="none" stroke-width="1" fill="none" fill-rule="evenodd">
        <g id="画板" transform="translate(-74.000000, -185.000000)" fill="#969190" fill-rule="nonzero">
            <g id="睁眼" transform="translate(74.000000, 185.000000)">
                <path d="M13.0400391,3.721875 C10.1501953,3.721875 7.79941406,6.07294922 7.79941406,8.96279297 C7.79941406,11.8526367 10.1501953,14.203418 13.0400391,14.203418 C15.9298828,14.203418 18.280957,11.8526367 18.280957,8.96279297 C18.280957,6.07294922 15.9298828,3.721875 13.0400391,3.721875 Z M13.0400391,12.384375 C11.1533203,12.384375 9.61845703,10.8495117 9.61845703,8.96279297 C9.61845703,7.07578125 11.1533203,5.54091797 13.0400391,5.54091797 C14.9270508,5.54091797 16.4619141,7.07578125 16.4619141,8.96279297 C16.4619141,10.8492187 14.9270508,12.384375 13.0400391,12.384375 Z" id="形状"></path>
                <path d="M13,0 C5.99635955,0 0,6.86025821 0,9 C0,11.1397418 5.99635955,18 13,18 C20.0036404,18 26,11.1397418 26,9 C26,6.86025821 20.0036404,0 13,0 Z M13,16.5 C6.70114387,16.5 1.5,10.1270394 1.5,9 C1.5,7.87270564 6.70114387,1.5 13,1.5 C19.2988561,1.5 24.5,7.87296057 24.5,9 C24.5,10.1270394 19.2985558,16.5 13,16.5 L13,16.5 Z" id="形状"></path>
            </g>
        </g>
    </g>
</svg>